SplineFontDB: 3.2
FontName: Morse-Mono
FullName: Morse Mono
FamilyName: Morse Mono
Weight: Regular
Copyright: Copyright (c) 2023, Antoine Cantoro
UComments: "2023-11-17: Created with FontForge (http://fontforge.org)"
Version: 001.000
ItalicAngle: 0
UnderlinePosition: -100
UnderlineWidth: 50
Ascent: 800
Descent: 200
InvalidEm: 0
LayerCount: 2
Layer: 0 0 "Arri+AOgA-re" 1
Layer: 1 0 "Avant" 0
XUID: [1021 812 956299128 4866512]
StyleMap: 0x0000
FSType: 0
OS2Version: 0
OS2_WeightWidthSlopeOnly: 0
OS2_UseTypoMetrics: 1
CreationTime: 1700254609
ModificationTime: 1700255576
PfmFamily: 17
TTFWeight: 400
TTFWidth: 5
LineGap: 90
VLineGap: 90
OS2TypoAscent: 0
OS2TypoAOffset: 1
OS2TypoDescent: 0
OS2TypoDOffset: 1
OS2TypoLinegap: 90
OS2WinAscent: 0
OS2WinAOffset: 1
OS2WinDescent: 0
OS2WinDOffset: 1
HheadAscent: 0
HheadAOffset: 1
HheadDescent: 0
HheadDOffset: 1
OS2Vendor: 'PfEd'
MarkAttachClasses: 1
DEI: 91125
LangName: 1033 "" "" "" "" "" "" "" "" "" "" "" "" "" "" "" "" "Morse"
Encoding: ISO8859-1
UnicodeInterp: none
NameList: AGL For New Fonts
DisplaySize: -48
AntiAlias: 1
FitToEm: 0
WidthSeparation: 200
WinInfo: 0 51 18
BeginPrivate: 0
EndPrivate
TeXData: 1 0 0 346030 173015 115343 0 1048576 115343 783286 444596 497025 792723 393216 433062 380633 303038 157286 324010 404750 52429 2506097 1059062 262144
BeginChars: 256 26

StartChar: A
Encoding: 65 65 0
Width: 688
Flags: W
HStem: 300 166.667<94 594> 633.333 166.667<260.667 427.333>
VStem: 260.667 166.666<633.333 800>
LayerCount: 2
Fore
SplineSet
94 300 m 1
 94 466.666992188 l 1
 594 466.666992188 l 1
 594 300 l 1
 94 300 l 1
260.666992188 633.333007812 m 1
 260.666992188 800 l 1
 427.333007812 800 l 1
 427.333007812 633.333007812 l 1
 260.666992188 633.333007812 l 1
EndSplineSet
Validated: 524289
EndChar

StartChar: B
Encoding: 66 66 1
Width: 700
Flags: W
HStem: -200 166.667<433.333 600> 216.667 166.666<433.333 600> 633.333 166.667<433.333 600>
VStem: 100 166.667<-200 800> 433.333 166.667<-200 -33.333 216.667 383.333 633.333 800>
CounterMasks: 1 e0
LayerCount: 2
Fore
SplineSet
100 -200 m 1
 100 800 l 1
 266.666992188 800 l 1
 266.666992188 -200 l 1
 100 -200 l 1
433.333007812 633.333007812 m 1
 433.333007812 800 l 1
 600 800 l 1
 600 633.333007812 l 1
 433.333007812 633.333007812 l 1
433.333007812 216.666992188 m 1
 433.333007812 383.333007812 l 1
 600 383.333007812 l 1
 600 216.666992188 l 1
 433.333007812 216.666992188 l 1
433.333007812 -200 m 1
 433.333007812 -33.3330078125 l 1
 600 -33.3330078125 l 1
 600 -200 l 1
 433.333007812 -200 l 1
EndSplineSet
Validated: 524289
EndChar

StartChar: C
Encoding: 67 67 2
Width: 689
Flags: W
HStem: -200 166.667<260.667 427.333> 91.667 166.666<94 594> 341.667 166.666<94 594> 633.333 166.667<260.667 427.333>
VStem: 260.667 166.666<-200 -33.333 633.333 800>
LayerCount: 2
Fore
SplineSet
94 341.666992188 m 1
 94 508.333007812 l 1
 594 508.333007812 l 1
 594 341.666992188 l 1
 94 341.666992188 l 1
94 91.6669921875 m 1
 94 258.333007812 l 1
 594 258.333007812 l 1
 594 91.6669921875 l 1
 94 91.6669921875 l 1
260.666992188 633.333007812 m 1
 260.666992188 800 l 1
 427.333007812 800 l 1
 427.333007812 633.333007812 l 1
 260.666992188 633.333007812 l 1
260.666992188 -200 m 1
 260.666992188 -33.3330078125 l 1
 427.333007812 -33.3330078125 l 1
 427.333007812 -200 l 1
 260.666992188 -200 l 1
EndSplineSet
Validated: 524289
EndChar

StartChar: D
Encoding: 68 68 3
Width: 689
Flags: W
HStem: -200 166.667<260.667 427.333> 216.667 166.666<94 594> 633.333 166.667<260.667 427.333>
VStem: 260.667 166.666<-200 -33.333 633.333 800>
CounterMasks: 1 e0
LayerCount: 2
Fore
SplineSet
94 216.666992188 m 1
 94 383.333007812 l 1
 594 383.333007812 l 1
 594 216.666992188 l 1
 94 216.666992188 l 1
260.666992188 633.333007812 m 1
 260.666992188 800 l 1
 427.333007812 800 l 1
 427.333007812 633.333007812 l 1
 260.666992188 633.333007812 l 1
260.666992188 -200 m 1
 260.666992188 -33.3330078125 l 1
 427.333007812 -33.3330078125 l 1
 427.333007812 -200 l 1
 260.666992188 -200 l 1
EndSplineSet
Validated: 524289
EndChar

StartChar: E
Encoding: 69 69 4
Width: 364
Flags: W
HStem: 216.667 166.666<98 264.667>
VStem: 98 166.667<216.667 383.333>
LayerCount: 2
Fore
SplineSet
98 216.666992188 m 1
 98 383.333007812 l 1
 264.666992188 383.333007812 l 1
 264.666992188 216.666992188 l 1
 98 216.666992188 l 1
EndSplineSet
Validated: 524289
EndChar

StartChar: F
Encoding: 70 70 5
Width: 699
Flags: W
HStem: -200 21G<100 266.667> 133.333 166.667<433.333 600> 633.333 166.667<100 266.667 433.333 600>
VStem: 100 166.667<-200 300 633.333 800> 433.333 166.667<133.333 300 633.333 800>
LayerCount: 2
Fore
SplineSet
100 -200 m 1
 100 300 l 1
 266.666992188 300 l 1
 266.666992188 -200 l 1
 100 -200 l 1
100 633.333007812 m 1
 100 800 l 1
 266.666992188 800 l 1
 266.666992188 633.333007812 l 1
 100 633.333007812 l 1
433.333007812 133.333007812 m 1
 433.333007812 300 l 1
 600 300 l 1
 600 133.333007812 l 1
 433.333007812 133.333007812 l 1
433.333007812 633.333007812 m 1
 433.333007812 800 l 1
 600 800 l 1
 600 633.333007812 l 1
 433.333007812 633.333007812 l 1
EndSplineSet
Validated: 524289
EndChar

StartChar: G
Encoding: 71 71 6
Width: 699
Flags: W
HStem: -200 166.667<265.667 599> 216.667 166.666<432.333 599>
VStem: 99 166.667<-33.333 300> 432.333 166.667<216.667 383.333>
LayerCount: 2
Fore
SplineSet
265.666992188 300 m 1
 265.666992188 -33.3330078125 l 1
 599 -33.3330078125 l 1
 599 -200 l 1
 265.666992188 -200 l 1
 99 -200 l 1
 99 -33.3330078125 l 1
 99 300 l 1
 265.666992188 300 l 1
432.333007812 216.666992188 m 1
 432.333007812 383.333007812 l 1
 599 383.333007812 l 1
 599 216.666992188 l 1
 432.333007812 216.666992188 l 1
EndSplineSet
Validated: 524289
EndChar

StartChar: H
Encoding: 72 72 7
Width: 693
Flags: W
HStem: -200 166.667<97 263.667 430.333 597> 633.333 166.667<97 263.667 430.333 597>
VStem: 97 166.667<-200 -33.333 633.333 800> 430.333 166.667<-200 -33.333 633.333 800>
LayerCount: 2
Fore
SplineSet
430.333007812 633.333007812 m 1
 430.333007812 800 l 1
 597 800 l 1
 597 633.333007812 l 1
 430.333007812 633.333007812 l 1
97 633.333007812 m 1
 97 800 l 1
 263.666992188 800 l 1
 263.666992188 633.333007812 l 1
 97 633.333007812 l 1
430.333007812 -200 m 1
 430.333007812 -33.3330078125 l 1
 597 -33.3330078125 l 1
 597 -200 l 1
 430.333007812 -200 l 1
97 -200 m 1
 97 -33.3330078125 l 1
 263.666992188 -33.3330078125 l 1
 263.666992188 -200 l 1
 97 -200 l 1
EndSplineSet
Validated: 524289
EndChar

StartChar: I
Encoding: 73 73 8
Width: 360
Flags: W
HStem: -200 166.667<97 263.666> 633.333 166.667<97 263.666>
VStem: 97 166.666<-200 -33.333 633.333 800>
LayerCount: 2
Fore
SplineSet
97 633.333007812 m 1
 97 800 l 1
 263.666015625 800 l 1
 263.666015625 633.333007812 l 1
 97 633.333007812 l 1
97 -200 m 1
 97 -33.3330078125 l 1
 263.666015625 -33.3330078125 l 1
 263.666015625 -200 l 1
 97 -200 l 1
EndSplineSet
Validated: 524289
EndChar

StartChar: J
Encoding: 74 74 9
Width: 698
Flags: W
HStem: -200 166.667<264.667 431.333> 633.333 166.667<431.333 598>
VStem: 98 166.667<-33.333 300> 431.333 166.667<-33.333 300 633.333 800>
LayerCount: 2
Fore
SplineSet
431.333007812 -33.3330078125 m 1
 431.333007812 300 l 1
 598 300 l 1
 598 -33.3330078125 l 1
 598 -200 l 1
 431.333007812 -200 l 1
 264.666992188 -200 l 1
 98 -200 l 1
 98 -33.3330078125 l 1
 98 300 l 1
 264.666992188 300 l 1
 264.666992188 -33.3330078125 l 1
 431.333007812 -33.3330078125 l 1
431.333007812 633.333007812 m 1
 431.333007812 800 l 1
 598 800 l 1
 598 633.333007812 l 1
 431.333007812 633.333007812 l 1
EndSplineSet
Validated: 524289
EndChar

StartChar: K
Encoding: 75 75 10
Width: 694
Flags: W
HStem: -200 21G<427.333 594> 195.833 166.667<94 260.667> 780 20G<427.333 594>
VStem: 94 166.667<195.833 362.5> 427.333 166.667<-200 195.833 362.5 800>
LayerCount: 2
Fore
SplineSet
427.333007812 -200 m 1
 427.333007812 195.833007812 l 1
 594 195.833007812 l 1
 594 -200 l 1
 427.333007812 -200 l 1
427.333007812 362.5 m 1
 427.333007812 800 l 1
 594 800 l 1
 594 362.5 l 1
 427.333007812 362.5 l 1
94 195.833007812 m 1
 94 362.5 l 1
 260.666992188 362.5 l 1
 260.666992188 195.833007812 l 1
 94 195.833007812 l 1
EndSplineSet
Validated: 524289
EndChar

StartChar: L
Encoding: 76 76 11
Width: 697
Flags: W
HStem: -200 166.667<98 264.667 431.333 598> 216.667 166.666<98 598> 633.333 166.667<264.667 431.333>
VStem: 98 166.667<-200 -33.333> 264.667 166.666<633.333 800> 431.333 166.667<-200 -33.333>
CounterMasks: 1 e0
LayerCount: 2
Fore
SplineSet
98 216.666992188 m 1xf4
 98 383.333007812 l 1
 598 383.333007812 l 1
 598 216.666992188 l 1
 98 216.666992188 l 1xf4
264.666992188 633.333007812 m 1xe8
 264.666992188 800 l 1
 431.333007812 800 l 1
 431.333007812 633.333007812 l 1
 264.666992188 633.333007812 l 1xe8
98 -200 m 1xf0
 98 -33.3330078125 l 1
 264.666992188 -33.3330078125 l 1
 264.666992188 -200 l 1
 98 -200 l 1xf0
431.333007812 -200 m 1xe4
 431.333007812 -33.3330078125 l 1
 598 -33.3330078125 l 1
 598 -200 l 1
 431.333007812 -200 l 1xe4
EndSplineSet
Validated: 524289
EndChar

StartChar: M
Encoding: 77 77 12
Width: 698
Flags: W
HStem: -200 21G<432.333 599> 780 20G<99 265.667>
VStem: 99 166.667<300 800> 432.333 166.667<-200 300>
LayerCount: 2
Fore
SplineSet
99 300 m 1
 99 800 l 1
 265.666992188 800 l 1
 265.666992188 300 l 1
 99 300 l 1
432.333007812 -200 m 1
 432.333007812 300 l 1
 599 300 l 1
 599 -200 l 1
 432.333007812 -200 l 1
EndSplineSet
Validated: 524289
EndChar

StartChar: N
Encoding: 78 78 13
Width: 689
Flags: W
HStem: -200 166.667<433.333 600> 780 20G<100 266.667>
VStem: 100 166.667<-200 800> 433.333 166.667<-200 -33.333>
LayerCount: 2
Fore
SplineSet
100 -200 m 1
 100 800 l 1
 266.666992188 800 l 1
 266.666992188 -200 l 1
 100 -200 l 1
433.333007812 -200 m 1
 433.333007812 -33.3330078125 l 1
 600 -33.3330078125 l 1
 600 -200 l 1
 433.333007812 -200 l 1
EndSplineSet
Validated: 524289
EndChar

StartChar: O
Encoding: 79 79 14
Width: 697
Flags: W
HStem: -200 21G<98 264.667> 216.667 166.666<264.667 431.333> 780 20G<431.333 598>
VStem: 98 166.667<-200 216.667> 431.333 166.667<383.333 800>
LayerCount: 2
Fore
SplineSet
431.333007812 383.333007812 m 1
 431.333007812 800 l 1
 598 800 l 1
 598 383.333007812 l 1
 598 300 l 1
 598 216.666992188 l 1
 264.666992188 216.666992188 l 1
 264.666992188 -200 l 1
 98 -200 l 1
 98 216.666992188 l 1
 98 300 l 1
 98 383.333007812 l 1
 431.333007812 383.333007812 l 1
EndSplineSet
Validated: 524289
EndChar

StartChar: P
Encoding: 80 80 15
Width: 698
Flags: W
HStem: -200 166.667<432.333 599> 216.667 166.666<99 265.667 432.333 599> 633.333 166.667<99 265.667>
VStem: 99 166.667<633.333 800> 265.667 166.666<50 216.667 383.333 550> 432.333 166.667<-200 -33.333>
CounterMasks: 1 e0
LayerCount: 2
Fore
SplineSet
432.333007812 550 m 1xe8
 432.333007812 383.333007812 l 1xe8
 599 383.333007812 l 1
 599 216.666992188 l 1xe4
 432.333007812 216.666992188 l 1
 432.333007812 50 l 1
 265.666992188 50 l 1
 265.666992188 216.666992188 l 1xe8
 99 216.666992188 l 1
 99 383.333007812 l 1xf0
 265.666992188 383.333007812 l 1
 265.666992188 550 l 1
 432.333007812 550 l 1xe8
99 633.333007812 m 1xf0
 99 800 l 1
 265.666992188 800 l 1
 265.666992188 633.333007812 l 1
 99 633.333007812 l 1xf0
432.333007812 -200 m 1xe4
 432.333007812 -33.3330078125 l 1
 599 -33.3330078125 l 1
 599 -200 l 1
 432.333007812 -200 l 1xe4
EndSplineSet
Validated: 524289
EndChar

StartChar: Q
Encoding: 81 81 16
Width: 699
Flags: W
HStem: -200 166.667<432.333 599> 633.333 166.667<265.667 432.333>
VStem: 99 166.667<300 633.333> 432.333 166.667<-200 -33.333 300 633.333>
LayerCount: 2
Fore
SplineSet
432.333007812 -200 m 1
 432.333007812 -33.3330078125 l 1
 599 -33.3330078125 l 1
 599 -200 l 1
 432.333007812 -200 l 1
265.666992188 800 m 1
 432.333007812 800 l 1
 599 800 l 1
 599 633.333007812 l 1
 599 300 l 1
 432.333007812 300 l 1
 432.333007812 633.333007812 l 1
 265.666992188 633.333007812 l 1
 265.666992188 300 l 1
 99 300 l 1
 99 633.333007812 l 1
 99 800 l 1
 265.666992188 800 l 1
EndSplineSet
Validated: 524289
EndChar

StartChar: R
Encoding: 82 82 17
Width: 697
Flags: W
HStem: -200 166.667<98 264.667> 216.667 166.666<98 598> 633.333 166.667<431.333 598>
VStem: 98 166.667<-200 -33.333> 431.333 166.667<633.333 800>
CounterMasks: 1 e0
LayerCount: 2
Fore
SplineSet
98 -200 m 1
 98 -33.3330078125 l 1
 264.666992188 -33.3330078125 l 1
 264.666992188 -200 l 1
 98 -200 l 1
431.333007812 633.333007812 m 1
 431.333007812 800 l 1
 598 800 l 1
 598 633.333007812 l 1
 431.333007812 633.333007812 l 1
98 216.666992188 m 1
 98 383.333007812 l 1
 598 383.333007812 l 1
 598 216.666992188 l 1
 98 216.666992188 l 1
EndSplineSet
Validated: 524289
EndChar

StartChar: S
Encoding: 83 83 18
Width: 680
Flags: W
HStem: -200 166.667<90 256.667> 216.667 166.666<256.667 423.333> 633.333 166.667<423.333 590>
VStem: 90 166.667<-200 -33.333> 256.667 166.666<216.667 383.333> 423.333 166.667<633.333 800>
CounterMasks: 1 e0
LayerCount: 2
Fore
SplineSet
90 -200 m 1xf0
 90 -33.3330078125 l 1
 256.666992188 -33.3330078125 l 1
 256.666992188 -200 l 1
 90 -200 l 1xf0
423.333007812 633.333007812 m 1xe4
 423.333007812 800 l 1
 590 800 l 1
 590 633.333007812 l 1
 423.333007812 633.333007812 l 1xe4
256.666992188 216.666992188 m 1xe8
 256.666992188 383.333007812 l 1
 423.333007812 383.333007812 l 1
 423.333007812 216.666992188 l 1
 256.666992188 216.666992188 l 1xe8
EndSplineSet
Validated: 524289
EndChar

StartChar: T
Encoding: 84 84 19
Width: 686
Flags: W
HStem: 633.333 166.667<94 594>
LayerCount: 2
Fore
SplineSet
94 633.333007812 m 1
 94 800 l 1
 594 800 l 1
 594 633.333007812 l 1
 94 633.333007812 l 1
EndSplineSet
Validated: 524289
EndChar

StartChar: U
Encoding: 85 85 20
Width: 693
Flags: W
HStem: -200 166.667<97 597> 633.333 166.667<97 263.667 430.333 597>
VStem: 97 166.667<633.333 800> 430.333 166.667<633.333 800>
LayerCount: 2
Fore
SplineSet
97 633.333007812 m 1
 97 800 l 1
 263.666992188 800 l 1
 263.666992188 633.333007812 l 1
 97 633.333007812 l 1
430.333007812 633.333007812 m 1
 430.333007812 800 l 1
 597 800 l 1
 597 633.333007812 l 1
 430.333007812 633.333007812 l 1
97 -200 m 1
 97 -33.3330078125 l 1
 597 -33.3330078125 l 1
 597 -200 l 1
 97 -200 l 1
EndSplineSet
Validated: 524289
EndChar

StartChar: V
Encoding: 86 86 21
Width: 698
Flags: W
HStem: -200 166.667<265.667 432.333> 195.833 166.667<99 599> 633.333 166.667<99 265.667 432.333 599>
VStem: 99 166.667<633.333 800> 265.667 166.666<-200 -33.333> 432.333 166.667<633.333 800>
LayerCount: 2
Fore
SplineSet
99 633.333007812 m 1xf0
 99 800 l 1
 265.666992188 800 l 1
 265.666992188 633.333007812 l 1
 99 633.333007812 l 1xf0
432.333007812 633.333007812 m 1xe4
 432.333007812 800 l 1
 599 800 l 1
 599 633.333007812 l 1
 432.333007812 633.333007812 l 1xe4
265.666992188 -200 m 1xe8
 265.666992188 -33.3330078125 l 1
 432.333007812 -33.3330078125 l 1
 432.333007812 -200 l 1
 265.666992188 -200 l 1xe8
99 195.833007812 m 1xf4
 99 362.5 l 1
 599 362.5 l 1
 599 195.833007812 l 1
 99 195.833007812 l 1xf4
EndSplineSet
Validated: 524289
EndChar

StartChar: W
Encoding: 87 87 22
Width: 698
Flags: W
HStem: -200 166.667<265.667 432.333> 780 20G<99 265.667 432.333 599>
VStem: 99 166.667<300 800> 265.667 166.666<-200 -33.333> 432.333 166.667<300 800>
LayerCount: 2
Fore
SplineSet
99 300 m 1xe0
 99 800 l 1
 265.666992188 800 l 1
 265.666992188 300 l 1
 99 300 l 1xe0
432.333007812 300 m 1xc8
 432.333007812 800 l 1
 599 800 l 1
 599 300 l 1
 432.333007812 300 l 1xc8
265.666992188 -200 m 1xd0
 265.666992188 -33.3330078125 l 1
 432.333007812 -33.3330078125 l 1
 432.333007812 -200 l 1
 265.666992188 -200 l 1xd0
EndSplineSet
Validated: 524289
EndChar

StartChar: X
Encoding: 88 88 23
Width: 700
Flags: W
HStem: -200 166.667<100 266.667> 633.333 166.667<433.333 600>
VStem: 100 166.667<-200 -33.333 300 800> 433.333 166.667<-200 300 633.333 800>
LayerCount: 2
Fore
SplineSet
100 300 m 1
 100 800 l 1
 266.666992188 800 l 1
 266.666992188 300 l 1
 100 300 l 1
433.333007812 -200 m 1
 433.333007812 300 l 1
 600 300 l 1
 600 -200 l 1
 433.333007812 -200 l 1
100 -200 m 1
 100 -33.3330078125 l 1
 266.666992188 -33.3330078125 l 1
 266.666992188 -200 l 1
 100 -200 l 1
433.333007812 633.333007812 m 1
 433.333007812 800 l 1
 600 800 l 1
 600 633.333007812 l 1
 433.333007812 633.333007812 l 1
EndSplineSet
Validated: 524289
EndChar

StartChar: Y
Encoding: 89 89 24
Width: 699
Flags: W
HStem: -200 166.667<432.333 599> 300 166.667<265.667 432.333> 780 20G<99 265.667 432.333 599>
VStem: 99 166.667<466.667 800> 432.333 166.667<-200 -33.333 466.667 800>
LayerCount: 2
Fore
SplineSet
432.333007812 466.666992188 m 1
 432.333007812 800 l 1
 599 800 l 1
 599 466.666992188 l 1
 599 300 l 1
 432.333007812 300 l 1
 265.666992188 300 l 1
 99 300 l 1
 99 466.666992188 l 1
 99 800 l 1
 265.666992188 800 l 1
 265.666992188 466.666992188 l 1
 432.333007812 466.666992188 l 1
432.333007812 -200 m 1
 432.333007812 -33.3330078125 l 1
 599 -33.3330078125 l 1
 599 -200 l 1
 432.333007812 -200 l 1
EndSplineSet
Validated: 524289
EndChar

StartChar: Z
Encoding: 90 90 25
Width: 698
Flags: W
HStem: -200 166.667<99 599> 50 166.667<99 265.667> 383.333 166.667<432.333 599> 633.333 166.667<99 599>
VStem: 99 166.667<50 216.667> 432.333 166.667<383.333 550>
LayerCount: 2
Fore
SplineSet
99 633.333007812 m 1
 99 800 l 1
 599 800 l 1
 599 633.333007812 l 1
 99 633.333007812 l 1
99 -200 m 1
 99 -33.3330078125 l 1
 599 -33.3330078125 l 1
 599 -200 l 1
 99 -200 l 1
432.333007812 383.333007812 m 1
 432.333007812 550 l 1
 599 550 l 1
 599 383.333007812 l 1
 432.333007812 383.333007812 l 1
99 50 m 1
 99 216.666992188 l 1
 265.666992188 216.666992188 l 1
 265.666992188 50 l 1
 99 50 l 1
EndSplineSet
Validated: 524289
EndChar
